PathFileType	4	(X/Y/Z)	./resultDataOpenSim/trcMotMarkerGrf/sub10/qtm-15-02.trc
DataRate	CameraRate	NumFrames	NumMarkers	Units	OrigDataRate	OrigDataStartFrame	OrigNumFrames
250.000000	250.000000	12	24	m	250.000000	352	469
Frame#	Time	L.Toe.Tip			R.Toe.Tip			L.Ankle.Lat			R.Ankle.Lat			L.Ankle.Med			R.Ankle.Med			L.Heel			R.Heel			L.Knee.Lat			R.Knee.Lat			L.Knee.Med			R.Knee.Med			L.Thigh.Upper			R.Thigh.Upper			L.ASIS			R.ASIS			V.Sacral			L.Acromium			R.Acromium			C7			L.Elbow			R.Elbow			L.Wrist.Lat			R.Wrist.Lat
		X1	Y1	Z1	X2	Y2	Z2	X3	Y3	Z3	X4	Y4	Z4	X5	Y5	Z5	X6	Y6	Z6	X7	Y7	Z7	X8	Y8	Z8	X9	Y9	Z9	X10	Y10	Z10	X11	Y11	Z11	X12	Y12	Z12	X13	Y13	Z13	X14	Y14	Z14	X15	Y15	Z15	X16	Y16	Z16	X17	Y17	Z17	X18	Y18	Z18	X19	Y19	Z19	X20	Y20	Z20	X21	Y21	Z21	X22	Y22	Z22	X23	Y23	Z23	X24	Y24	Z24

352	1.404	1.1768523	0.06449294	-0.26871383	0.91848656	0.038404647	0.029487438	1.0468638	0.10166195	-0.27223856	0.77717833	0.058259415	0.062041825	1.0779933	0.1162246	-0.19237046	0.80154064	0.07749707	-0.024038892	0.98853363	0.068455872	-0.22092145	0.72503415	0.036263667	0.016731872	1.1225327	0.48270968	-0.25354707	0.94423941	0.41936572	0.074039309	1.1531473	0.45241064	-0.14125356	0.95605637	0.42511661	-0.05290778	0.93060906	0.80867699	-0.25401576	0.90886581	0.83724506	0.13233235	0.98184189	0.91360626	-0.18287719	0.977758	0.92794865	0.061640803	0.78174362	0.93449056	-0.067733049	0.96333206	1.3964074	-0.20549729	0.94099504	1.3775716	0.1106146	0.87960485	1.4243308	-0.054044384	0.76829863	1.123389	-0.29053531	0.88478728	1.0289874	0.19061101	0.82102058	0.91381676	-0.40864665	1.0871983	0.8869862	0.23045048
353	1.408	1.194939	0.06504776	-0.26884911	0.91843779	0.038393359	0.029411868	1.0638997	0.098861349	-0.27341276	0.77705592	0.058494551	0.061929474	1.0943101	0.1144307	-0.19346044	0.80158248	0.077614186	-0.024201331	1.0061002	0.064445546	-0.22247638	0.72496519	0.036448695	0.016136792	1.1271653	0.48245096	-0.25441059	0.94444273	0.41975602	0.073792624	1.1577703	0.45257175	-0.14218891	0.95630309	0.42527526	-0.053090473	0.93661154	0.81026874	-0.25492154	0.91264351	0.83809568	0.13136056	0.98770989	0.91506789	-0.1834377	0.98225069	0.92900633	0.060944372	0.78685022	0.93557998	-0.069278043	0.96721592	1.3976378	-0.20632468	0.94609011	1.3786622	0.10990027	0.88403424	1.4253869	-0.054571519	0.77107796	1.1253487	-0.29046207	0.8921175	1.0289688	0.19039571	0.82190815	0.91551482	-0.40880381	1.0969401	0.88868438	0.22341553
354	1.412	1.2127839	0.065853777	-0.26880187	0.91836282	0.03839194	0.029348009	1.0807882	0.096346709	-0.27456915	0.77699488	0.05873591	0.061803401	1.1096157	0.11256757	-0.19442575	0.80182485	0.077739311	-0.024292832	1.0233204	0.060888293	-0.22432036	0.72491356	0.036657016	0.01561842	1.1316826	0.48197347	-0.25533644	0.94467391	0.42015239	0.073575659	1.1623662	0.45254035	-0.14311524	0.95657509	0.4254133	-0.053259179	0.94263611	0.81176335	-0.25581043	0.91641506	0.83892636	0.13037573	0.99365353	0.91647481	-0.18397334	0.98680383	0.93003534	0.060217758	0.79228114	0.93654608	-0.070776678	0.97106823	1.3988249	-0.20714573	0.95115494	1.3797308	0.10917504	0.88847462	1.4263505	-0.05512038	0.77389027	1.1272864	-0.29052419	0.89951796	1.0291596	0.18972425	0.8228473	0.91720104	-0.40903671	1.1065986	0.89044191	0.2164136
355	1.416	1.2303314	0.066950096	-0.26862265	0.91830408	0.038419119	0.029312042	1.0974925	0.094112709	-0.27571436	0.7770105	0.058972093	0.061659705	1.1242249	0.11075518	-0.19535121	0.80214776	0.077880849	-0.02435342	1.0402439	0.057695849	-0.22635967	0.72489335	0.036889963	0.015281364	1.1362079	0.48133991	-0.25629988	0.94494749	0.42054863	0.073379816	1.1669672	0.45232505	-0.14403136	0.95689419	0.42552552	-0.053420902	0.94868098	0.81315809	-0.25667725	0.92014427	0.83969546	0.12947071	0.99966188	0.91782659	-0.18449275	0.99137829	0.93102086	0.059477604	0.79798561	0.93739868	-0.072252069	0.97490584	1.3999613	-0.20796064	0.95623205	1.3807573	0.10840875	0.89292333	1.4272199	-0.055704278	0.77673696	1.1291882	-0.29070557	0.90713172	1.0295376	0.18871058	0.82383467	0.91887142	-0.40935282	1.1161687	0.89225313	0.20945407
356	1.42	1.2475008	0.068357516	-0.26836492	0.91830033	0.038474464	0.029306693	1.1139817	0.092143374	-0.2768584	0.77705849	0.059219375	0.061516376	1.138838	0.10925177	-0.19629952	0.80239713	0.078048163	-0.024437983	1.0570202	0.054718024	-0.22834363	0.72489693	0.037146968	0.015077012	1.1408282	0.48059575	-0.25727377	0.94526067	0.42094847	0.073206737	1.1717225	0.45194816	-0.14491574	0.95728216	0.42561783	-0.053573875	0.95473978	0.814455	-0.25752289	0.9238413	0.84039505	0.12864152	1.0057194	0.91913276	-0.18501732	0.99589109	0.93193573	0.058747877	0.8037248	0.93817872	-0.073780282	0.97874489	1.4010392	-0.2087721	0.96142832	1.3817066	0.10754421	0.89734506	1.4280215	-0.056301166	0.77961407	1.1310303	-0.29094679	0.91504303	1.0300582	0.18760098	0.8248901	0.9205175	-0.40976979	1.125634	0.89410918	0.20255031
357	1.424	1.2642533	0.070088731	-0.26803809	0.91832888	0.038517427	0.029299485	1.1302322	0.090424209	-0.27801536	0.7771067	0.05949688	0.061384197	1.1538881	0.10822045	-0.19726666	0.8025468	0.078245842	-0.024559344	1.0737213	0.051876664	-0.23012571	0.72491625	0.037426097	0.014921238	1.1455355	0.47976306	-0.25825674	0.94560909	0.42136333	0.073057348	1.176837	0.45144407	-0.14573603	0.95774237	0.42569497	-0.053712581	0.96081357	0.81565332	-0.25836516	0.92760336	0.84108754	0.12772963	1.0118253	0.92040455	-0.18557009	1.0003062	0.93276975	0.058037282	0.8093429	0.93890615	-0.07540114	0.98259247	1.4020564	-0.20958381	0.96683664	1.3825506	0.10653901	0.90171689	1.428772	-0.056885524	0.78249646	1.1328012	-0.29118435	0.92325346	1.0306841	0.18656507	0.82605012	0.92212569	-0.4103044	1.1349857	0.8959949	0.19570496
358	1.428	1.2806091	0.07214694	-0.26760428	0.91833929	0.03850779	0.029256523	1.1462097	0.088961576	-0.27919752	0.77716272	0.059802604	0.061256705	1.1691559	0.1076149	-0.19823316	0.80265665	0.07847601	-0.024703136	1.0902791	0.04920938	-0.2317675	0.72495029	0.037726518	0.014767621	1.1502855	0.47885997	-0.25926377	0.94599156	0.42179569	0.072920254	1.1822495	0.45082319	-0.1464959	0.95825982	0.4257562	-0.053834081	0.96691214	0.81674879	-0.25921743	0.93152883	0.8418395	0.1265828	1.0179831	0.9216446	-0.18616437	1.0046902	0.93353957	0.057333048	0.81485407	0.93956026	-0.077091483	0.98644518	1.4030146	-0.21039699	0.97237525	1.3833112	0.10543499	0.90605977	1.4294588	-0.057467401	0.78535451	1.1345033	-0.29139624	0.93166122	1.0313444	0.18560716	0.82734353	0.92368609	-0.41096114	1.1442358	0.89788915	0.1889122
359	1.432	1.2965856	0.074504202	-0.26702641	0.91832849	0.038460305	0.029189402	1.1618647	0.087778467	-0.28040775	0.77724685	0.060117107	0.061118608	1.1842071	0.10731399	-0.19920718	0.80277965	0.078739681	-0.024857228	1.106581	0.04678932	-0.2333971	0.72499986	0.03805094	0.014597837	1.1550805	0.47790252	-0.2602984	0.94640462	0.42223313	0.072772838	1.1875688	0.45005998	-0.14724355	0.95882589	0.42579957	-0.053941796	0.9730468	0.81773961	-0.26007167	0.93559642	0.84262358	0.12526674	1.02418	0.92284135	-0.18679163	1.0091502	0.93425079	0.056615597	0.82033149	0.94013099	-0.078809238	0.9902942	1.4039122	-0.21120709	0.97779786	1.3840562	0.10434609	0.91038181	1.4300766	-0.058057544	0.78820665	1.136142	-0.29162333	0.94009047	1.0319433	0.18460873	0.82877123	0.92519871	-0.41172888	1.1534075	0.8997731	0.18216772
360	1.436	1.3121486	0.077095225	-0.2663313	0.91832995	0.038419421	0.029132714	1.1771539	0.086890143	-0.28164648	0.77735733	0.060427073	0.060955087	1.198734	0.10719663	-0.20021907	0.80293397	0.07903435	-0.025019328	1.1225482	0.044658195	-0.23509369	0.72506329	0.038403473	0.014400457	1.1599825	0.47689976	-0.26133989	0.94683723	0.4226623	0.072601284	1.1924797	0.44913528	-0.14801624	0.95945337	0.42582664	-0.054044526	0.97923007	0.81862792	-0.26091992	0.93970799	0.84335857	0.12396745	1.0303859	0.92397529	-0.1874283	1.013745	0.9348816	0.055870196	0.82582431	0.94064133	-0.080538553	0.99413687	1.4047459	-0.21200946	0.98293419	1.3848335	0.10334847	0.91465465	1.430641	-0.058647973	0.79112469	1.1377247	-0.29194415	0.94843313	1.032428	0.18348469	0.83031323	0.9266691	-0.41259464	1.1625116	0.90164935	0.17546945
361	1.44	1.3272348	0.07984201	-0.26563651	0.91835931	0.038405685	0.029098469	1.1920674	0.086284436	-0.28292718	0.77746399	0.060740059	0.060757602	1.2125934	0.10717133	-0.20130388	0.80311389	0.079352282	-0.025193836	1.1381363	0.04282266	-0.23688903	0.72513482	0.038785095	0.014165723	1.165022	0.47585998	-0.26235685	0.94727145	0.42308639	0.072421498	1.1970247	0.44806881	-0.14880386	0.96016219	0.42584315	-0.054152137	0.98547184	0.81941505	-0.26177369	0.94380586	0.84400527	0.12276862	1.0365772	0.92503335	-0.18806072	1.0184462	0.93542943	0.05509376	0.8313436	0.94109877	-0.08230165	0.9979772	1.4055146	-0.21280739	0.98781523	1.3856305	0.10242937	0.91887252	1.4311512	-0.059250307	0.79415901	1.1392603	-0.29240515	0.9567091	1.0328127	0.18225211	0.83194837	0.92810078	-0.41355817	1.1715436	0.90354542	0.1688132
362	1.444	1.3418006	0.082677339	-0.26507496	0.91840229	0.038411695	0.029074285	1.2066135	0.085932179	-0.28426837	0.7775352	0.061076193	0.060528995	1.2258417	0.10723118	-0.20248281	0.80330581	0.079682896	-0.025386507	1.1533141	0.041274098	-0.23880527	0.72520696	0.039192962	0.013890612	1.1701228	0.47479762	-0.26332731	0.9476977	0.42352062	0.072265118	1.2014484	0.44690208	-0.14956883	0.96095588	0.42585772	-0.054272036	0.99175986	0.82009759	-0.26264241	0.94788887	0.84456921	0.12163429	1.0427517	0.92601635	-0.18869474	1.0231623	0.93593602	0.054298572	0.83687927	0.94147464	-0.084128315	1.001818	1.4062185	-0.21360575	0.99256276	1.386398	0.10153865	0.92306355	1.4315824	-0.059890385	0.79729506	1.1407499	-0.29298805	0.96497338	1.0331366	0.18096176	0.8336596	0.92949157	-0.41462294	1.1804941	0.90548816	0.16219993
363	1.448	1.3558262	0.085545488	-0.26466722	0.91842777	0.038419909	0.029039265	1.220775	0.085810799	-0.28566435	0.7775685	0.061451528	0.060285139	1.2385995	0.10739902	-0.2037579	0.80349819	0.080019075	-0.025597971	1.1680532	0.039997324	-0.24086995	0.72527452	0.039626134	0.013583275	1.1751798	0.47373188	-0.26424292	0.94813347	0.42397184	0.072137899	1.2059314	0.44566488	-0.15027876	0.96181624	0.42587899	-0.054405936	0.99805642	0.8206697	-0.26350953	0.95197199	0.84506285	0.12050915	1.0489208	0.92693276	-0.18934241	1.0278186	0.93644018	0.053499683	0.84242645	0.94174768	-0.08601664	1.0056622	1.4068568	-0.21440103	0.99727132	1.3870915	0.10063749	0.92724772	1.4319142	-0.060568338	0.80049385	1.1421791	-0.29365195	0.97324565	1.033433	0.17964346	0.83543764	0.93083368	-0.41577783	1.1893318	0.90748465	0.15565097
